<svg width="48" height="48" viewBox="0 0 48 48" fill="none" xmlns="http://www.w3.org/2000/svg">
<path d="M31.9408 5.29009C31.9539 5.22557 32.0461 5.22557 32.0593 5.29009C32.7438 8.63906 35.361 11.2562 38.71 11.9408C38.7745 11.9539 38.7745 12.0461 38.71 12.0593C35.361 12.7438 32.7438 15.361 32.0593 18.71C32.0461 18.7745 31.9539 18.7745 31.9408 18.71C31.2562 15.361 28.6391 12.7438 25.2901 12.0593C25.2256 12.0461 25.2256 11.9539 25.2901 11.9408C28.6391 11.2562 31.2562 8.63906 31.9408 5.29009Z" stroke="#00C2FF" stroke-width="3"/>
<path d="M24.4374 19.7521C24.5626 19.1399 25.4374 19.1399 25.5625 19.7521C25.8389 21.1043 26.8956 22.1611 28.2478 22.4374C28.86 22.5626 28.86 23.4374 28.2478 23.5625C26.8956 23.8389 25.8389 24.8956 25.5625 26.2478C25.4374 26.86 24.5626 26.86 24.4374 26.2478C24.1611 24.8956 23.1043 23.8389 21.7521 23.5625C21.1399 23.4374 21.1399 22.5626 21.7521 22.4374C23.1043 22.1611 24.1611 21.1043 24.4374 19.7521Z" fill="#00C2FF"/>
<path fill-rule="evenodd" clip-rule="evenodd" d="M23.4995 6.42779C23.5234 7.25587 22.8715 7.94654 22.0434 7.97043C18.4722 8.0735 14.9362 9.48657 12.2115 12.2113C6.54891 17.8739 6.54891 27.0548 12.2115 32.7174C17.8741 38.38 27.055 38.38 32.7176 32.7174C35.6561 29.7789 37.0697 25.8959 36.9585 22.0432C36.9346 21.2151 37.5865 20.5244 38.4146 20.5005C39.2427 20.4766 39.9333 21.1285 39.9572 21.9566C40.0777 26.1324 38.7102 30.3475 35.8547 33.7332L41.91 39.7885C42.4958 40.3743 42.4958 41.324 41.91 41.9098C41.3242 42.4956 40.3745 42.4956 39.7887 41.9098L33.7334 35.8546C26.8578 41.6542 16.5671 41.3156 10.0902 34.8387C3.25601 28.0045 3.25601 16.9242 10.0902 10.09C13.3776 6.80261 17.6508 5.09595 21.9568 4.97168C22.7849 4.94778 23.4756 5.5997 23.4995 6.42779Z" fill="#0500FF"/>
</svg>
