<?xml version="1.0" encoding="UTF-8"?>
<svg id="Capa_1" xmlns="http://www.w3.org/2000/svg" xmlns:xlink="http://www.w3.org/1999/xlink" version="1.1" viewBox="0 0 175 61">
  <!-- Generator: Adobe Illustrator 30.0.0, SVG Export Plug-In . SVG Version: 2.1.1 Build 123)  -->
  <defs>
    <style>
      .st0 {
        fill: none;
      }

      .st1 {
        fill: #fff;
      }

      .st2 {
        clip-path: url(#clippath);
      }
    </style>
    <clipPath id="clippath">
      <rect class="st0" width="175" height="61"/>
    </clipPath>
  </defs>
  <g class="st2">
    <g>
      <path class="st1" d="M172.7,12.3h.5l.5.9h.2l-.5-.9c.1,0,.3-.1.3-.2,0,0,.1-.2.1-.3s0-.2,0-.3-.1-.2-.2-.2c-.1,0-.2,0-.4,0h-.6v2h.2v-.9h0ZM172.7,11.4h.5c.2,0,.3,0,.4.1,0,0,.1.2.1.3s0,.1,0,.2,0,0-.2.1c-.1,0-.2,0-.3,0h-.4v-.7h0Z"/>
      <path class="st1" d="M173.2,14c1,0,1.8-.8,1.8-1.8s-.8-1.8-1.8-1.8-1.8.8-1.8,1.8.8,1.8,1.8,1.8ZM173.2,10.5c.9,0,1.6.7,1.6,1.6s-.7,1.6-1.6,1.6-1.6-.7-1.6-1.6.7-1.6,1.6-1.6Z"/>
      <path class="st1" d="M12.1,52.3c3.3,2.2,7.5,5.2,11.3,7.7,2,1.3,4.7,1.3,6.7,0h0c5.7-3.5,9.8-6.4,15-10.7,3.9-3.3,6.5-7.2,7.3-12.4,1-6.6,1.1-13.2,1.2-19.9,0-3.9-1.5-6.2-5.1-7.7-5.8-2.4-13.3-6-19.4-8.8-1.5-.7-3.2-.7-4.7,0h0c-6.7,3-13.3,6.1-20.1,9.1C1.4,10.9,0,13,0,16.4c0,5,.3,9.9.4,14.8.3,9.1,4.2,16,11.7,21.1ZM6.1,11.2c6.2-2.7,12.4-5.6,18.5-8.4h0c1.4-.6,2.9-.7,4.3,0,5.6,2.6,12.6,5.9,17.9,8.1,3.3,1.4,4.8,3.5,4.7,7.1,0,6.2-.2,12.3-1.1,18.4-.7,4.8-3.2,8.4-6.8,11.5-4.8,4-8.5,6.7-13.8,9.9h0c-1.9,1.2-4.3,1.2-6.2,0-3.5-2.3-7.4-5.1-10.4-7.1-6.9-4.7-10.5-11.1-10.8-19.5-.2-4.6-.4-9.1-.4-13.7,0-3,1.3-5,4.1-6.2"/>
      <path class="st1" d="M12.5,46.1c3.9,3.1,8,5.9,12.2,8.7,1.5,1,2.8.9,4.4,0,4.4-2.9,8.8-5.8,12.9-9.2,3.2-2.6,5.2-5.9,5.8-10.1.5-4,.8-7.9.8-11.9,0-2.2,0-4.5,0-6.7,0-1.2-.5-2-1.6-2.5-6.1-2.7-12.3-5.4-18.4-8.2-.9-.4-1.9-.6-2.9-.1-6.2,2.8-12.4,5.5-18.6,8.3-1.1.5-1.6,1.3-1.6,2.5,0,5.8,0,11.6.7,17.4.5,5,2.7,8.8,6.7,12M13.4,18.6c.6-2.8,2.7-4.3,5.5-4.4,2.4-.1,4.7.4,6.9,1.3.7.3,1.3.3,2,0,2.5-1.1,5.1-1.5,7.7-1.3,2.6.2,4.5,2,4.9,4.9.5,3.3,0,6.5-1.4,9.4-.1.2-.2.5-.4.6-1.5,1.2-1.3,2.9-1.2,4.6,0,3.4-.6,6.8-1.9,9.9-.4.9-1,1.6-1.5,2.4-.6.7-1.5,1-2.3.5-.4-.3-3.3-2.4-3.3-2.4v-.6s1.7-.5,1.9-1.2c0,0-.6-.2-1.8-.1v-1.9s1.4-.4,1.8-1.3c0,0-.3-.3-1.6-.3v-2.1s1,.1,2-1.1c0,0-.5-.6-1.7-.6v-1.8s1.7-.3,1.9-1.2c0,0-.7-.3-1.5-.3,0,0-.2-3,1.7-3.8v-3.3h-8.9v3.3s1.7.3,1.6,4.7c0,0,2.1-.8,4.4-.6,0,0-4.4.2-6,2.6,0,0,.5.2,1.8,0v1.6s1.6-.7,4.4-.5c0,0-4.4.3-6.1,2.3,0,0,.3.4,2,.3v1.6s1.6-1,3.5-.4c0,0-4.6.4-5.1,2.2,0,0,1,.2,1.9,0v1.5s1.5-.5,2.8-.2c0,0-4.3.5-4.5,1.8,0,0,.4.4,1.8,0,0,0-2.7,2-3,2.1-.5.2-1.4.1-1.9-.2-.7-.5-1.2-1.3-1.6-2.1,0-.2-.2-.4-.3-.6-1.2-2.6-1.7-5.5-2-8.4-.1-1.4.1-2.7,0-4.1,0-.4-.4-.7-.6-1.1-2.6-3.4-3.2-7.3-2.3-11.4"/>
      <path class="st1" d="M64.6,48.1h-1.2v-4.1h1.2v-1.3h-3.8v1.3h1.1v4.1h-1.1v1.3h3.8v-1.3Z"/>
      <path class="st1" d="M70.8,44.4c-.3.2-.6.4-.8.7-.1-.3-.3-.5-.6-.7-.3-.2-.6-.3-.9-.3-.5,0-1,.2-1.4.7v-.6h-1.4v5.2h1.4v-2.8c0-.4.1-.7.3-.9.2-.2.5-.3.7-.3s.5,0,.6.3c.1.2.2.5.2.9v2.8h1.4v-2.8c0-.4.1-.7.3-.9.2-.2.5-.3.7-.3.6,0,.9.4.9,1.2v2.8h1.4v-3.1c0-.7-.2-1.2-.6-1.6-.4-.4-.9-.5-1.5-.5s-.7,0-1,.3"/>
      <path class="st1" d="M75.1,44.2v7h1.4v-2.5c.4.5.9.8,1.5.8s1.2-.3,1.6-.8.7-1.1.7-1.9-.2-1.4-.7-1.9-1-.8-1.6-.8-1.1.2-1.6.7v-.6h-1.4ZM76.9,45.8c.2-.3.5-.4.9-.4s.6.1.9.4.4.6.4,1-.1.8-.4,1c-.2.3-.5.4-.9.4s-.6-.1-.8-.4c-.2-.3-.4-.6-.4-1s.1-.8.4-1"/>
      <path class="st1" d="M81.5,42.7v5c0,.6.2,1,.5,1.3.3.3.8.5,1.3.5s1-.2,1.4-.6l-.5-1c-.2.2-.4.4-.7.4s-.3,0-.4-.2c-.1-.1-.2-.3-.2-.5v-4.9h-1.4Z"/>
      <path class="st1" d="M85.2,46.8c0,.8.2,1.5.7,1.9.5.5,1.1.7,1.7.7s1-.2,1.4-.5v.4h1.4v-5.2h-1.4v.4c-.4-.3-.8-.5-1.3-.5s-1.2.2-1.7.7c-.5.5-.8,1.1-.8,1.9M87,45.8c.2-.3.5-.4.9-.4s.6.1.9.4c.2.3.3.6.3,1.1s-.1.8-.3,1c-.2.3-.5.4-.8.4s-.6-.1-.9-.4c-.2-.3-.4-.6-.4-1s.1-.8.4-1.1"/>
      <path class="st1" d="M91.9,44.2v5.2h1.4v-2.9c0-.4.1-.7.3-.9.2-.2.5-.3.7-.3.6,0,.9.4.9,1.2v2.9h1.4v-3.1c0-.6-.2-1.2-.5-1.5-.4-.4-.8-.6-1.4-.6s-1,.2-1.5.7v-.6h-1.4,0Z"/>
      <path class="st1" d="M97.9,42.7v5c0,.6.2,1,.5,1.3.3.3.8.5,1.3.5s1-.2,1.4-.6l-.5-1c-.2.2-.4.4-.7.4s-.3,0-.4-.2c-.1-.1-.2-.3-.2-.5v-2.2h1.2v-1.1h-1.2v-1.5h-1.4Z"/>
      <path class="st1" d="M105.4,44.7c-.4-.3-.8-.5-1.3-.5s-1.2.2-1.7.7c-.5.5-.8,1.1-.8,1.9s.2,1.5.7,1.9c.5.5,1.1.7,1.7.7s1-.2,1.4-.5v.4h1.4v-5.2h-1.4v.4h0ZM105,47.8c-.2.3-.5.4-.8.4s-.6-.1-.9-.4c-.2-.3-.4-.6-.4-1s.1-.8.4-1.1c.2-.3.5-.4.9-.4s.6.1.9.4c.2.3.3.6.3,1.1s-.1.8-.3,1"/>
      <path class="st1" d="M108.2,44.2v5.2h1.4v-2.9c0-.4.1-.7.3-.9.2-.2.5-.3.7-.3.6,0,.9.4.9,1.2v2.9h1.4v-3.1c0-.6-.2-1.2-.6-1.5-.4-.4-.8-.6-1.4-.6s-1,.2-1.5.7v-.6h-1.4,0Z"/>
      <path class="st1" d="M117.9,44.8c-.4-.4-.9-.7-1.5-.7s-1.2.2-1.6.7c-.5.5-.7,1.1-.7,1.9s.2,1.4.7,1.9,1,.8,1.6.8,1.1-.2,1.5-.8v.7h1.4v-7.1h-1.4v2.5h0ZM117.5,47.8c-.2.3-.5.4-.8.4s-.6-.1-.9-.4c-.2-.3-.4-.6-.4-1s.1-.8.4-1c.2-.3.5-.4.9-.4s.6.1.9.4c.2.3.3.6.3,1s-.1.8-.3,1"/>
      <path class="st1" d="M121.1,48.7c.5.5,1.2.8,1.9.8s1.4-.3,1.9-.8c.5-.5.8-1.1.8-1.9s-.3-1.4-.8-1.9c-.5-.5-1.2-.8-1.9-.8s-1.4.3-1.9.8c-.5.5-.8,1.1-.8,1.9s.3,1.4.8,1.9ZM122.2,45.8c.2-.3.5-.4.9-.4s.7.1.9.4c.2.3.4.6.4,1s-.1.8-.4,1c-.2.3-.5.4-.9.4s-.7-.1-.9-.4c-.2-.3-.4-.6-.4-1s.1-.8.4-1Z"/>
      <path class="st1" d="M130,43c-.5.3-.7.8-.7,1.5s.2,1.1.5,1.4c.4.3.9.5,1.7.7.5.1.8.2,1,.4.2.1.2.3.2.5s0,.4-.2.5c-.2.1-.4.2-.6.2-.6,0-1.3-.3-2-.9l-.9,1.1c.8.8,1.8,1.2,2.9,1.2s1.3-.2,1.8-.6c.4-.4.7-.9.7-1.5s-.2-1.1-.5-1.4c-.4-.3-.8-.5-1.5-.7-.6-.2-1-.3-1.2-.4-.2-.1-.3-.3-.3-.5s0-.4.2-.5c.1-.1.3-.2.6-.2.6,0,1.2.2,1.8.7l.8-1.1c-.3-.3-.7-.5-1.2-.6-.4-.2-.9-.2-1.3-.2-.7,0-1.2.2-1.7.5"/>
      <path class="st1" d="M137.8,44.1c-.8,0-1.4.3-1.9.8-.5.5-.8,1.1-.8,1.9s.3,1.4.8,1.9c.5.5,1.2.8,1.9.8s1.4-.3,1.9-.8c.5-.5.8-1.1.8-1.9s-.3-1.4-.8-1.9c-.5-.5-1.2-.8-1.9-.8ZM138.7,47.8c-.2.3-.5.4-.9.4s-.7-.1-.9-.4c-.2-.3-.4-.6-.4-1s.1-.8.4-1c.2-.3.5-.4.9-.4s.7.1.9.4c.2.3.4.6.4,1s-.1.8-.4,1Z"/>
      <path class="st1" d="M143,44.2h-1.4v5.2h1.4v-2.9c0-.4.1-.7.3-.9.2-.2.5-.3.7-.3.6,0,.9.4.9,1.2v2.9h1.4v-3.1c0-.6-.2-1.2-.5-1.5-.4-.4-.8-.6-1.4-.6s-1,.2-1.5.7v-.6h0Z"/>
      <path class="st1" d="M147.7,44.2v5.2h1.4v-2.2c0-.5.1-.9.3-1.2s.5-.5,1-.5h.3v-1.4c-.3,0-.6,0-.9.2-.3.1-.5.3-.7.5v-.7h-1.4Z"/>
      <path class="st1" d="M153,44.2h-1.4v5.2h1.4v-5.2Z"/>
      <path class="st1" d="M152.9,42.4c-.2-.2-.4-.2-.6-.2s-.4,0-.6.2c-.2.2-.2.4-.2.6s0,.4.2.6c.2.2.4.2.6.2s.4,0,.6-.2c.2-.2.2-.4.2-.6s0-.4-.2-.6Z"/>
      <path class="st1" d="M154.9,46.8c.2.1.4.2.5.3.2,0,.4.1.6.2.3,0,.5.2.6.3.2.1.2.2.2.3s0,.2-.2.3c-.1,0-.3.1-.4.1-.6,0-1.2-.2-1.7-.6l-.6.9c.3.3.7.5,1.1.6.4.1.8.2,1.2.2.6,0,1-.2,1.4-.5.4-.3.6-.7.6-1.2s-.2-.9-.5-1.1c-.2-.1-.4-.2-.5-.3-.1,0-.4-.1-.7-.2-.3-.1-.6-.2-.7-.3-.1,0-.2-.2-.2-.3,0-.2.2-.4.7-.4s.9.2,1.3.5l.5-1c-.6-.4-1.2-.6-1.8-.6s-1.1.2-1.5.4c-.4.3-.6.7-.6,1.2s.2.8.6,1.1Z"/>
      <path class="st1" d="M162.9,44.7c-.4-.3-.8-.5-1.3-.5s-1.2.2-1.7.7c-.5.5-.8,1.1-.8,1.9s.2,1.5.7,1.9c.5.5,1.1.7,1.7.7s1-.2,1.4-.5v.4h1.4v-5.2h-1.4v.4h0ZM162.6,47.8c-.2.3-.5.4-.8.4s-.6-.1-.9-.4c-.2-.3-.4-.6-.4-1s.1-.8.4-1.1c.2-.3.5-.4.9-.4s.6.1.9.4c.2.3.3.6.3,1.1s-.1.8-.3,1"/>
      <path class="st1" d="M168.1,48.3c-.1,0-.3.1-.4.1-.6,0-1.2-.2-1.7-.6l-.6.9c.3.3.7.5,1.1.6.4.1.8.2,1.2.2.6,0,1-.2,1.4-.5.4-.3.6-.7.6-1.2s-.2-.9-.5-1.1c-.2-.1-.3-.2-.5-.3-.1,0-.4-.1-.7-.2-.3-.1-.6-.2-.7-.3-.1,0-.2-.2-.2-.3,0-.2.2-.4.7-.4s.9.2,1.3.5l.5-1c-.6-.4-1.2-.6-1.8-.6s-1.1.2-1.5.4c-.4.3-.6.7-.6,1.2s.2.8.6,1.1c.2.1.4.2.5.3.2,0,.4.1.6.2.3,0,.5.2.6.3.2.1.2.2.2.3s0,.2-.2.3"/>
      <path class="st1" d="M166.6,9.8v15.9l-5-15.9h-4.1v26.8h3.4v-19.3l5.7,19.1v.2h3V9.8h-3Z"/>
      <path class="st1" d="M140.1,15.8h-5.1v20.7h5.1c3.1,0,4.7-1.7,4.7-5.1v-10.5c0-3.3-1.7-5.1-4.7-5.1ZM141.6,20.8v10.7c0,1.7-.9,2.1-1.6,2.1h-1.7v-14.9h1.7c.7,0,1.6.2,1.6,2.1Z"/>
      <path class="st1" d="M146.8,36.5h8.9v-3h-5.7v-5.9h4.4v-3h-4.4v-5.8h5.7v-2.9h-8.9v20.7Z"/>
      <path class="st1" d="M150.2,13.9h1.2c.1,0,.4-.1.5-.2l2.6-3c.1-.1.2-.3.1-.6-.1-.2-.2-.4-.5-.4h-1.8c-.2,0-.4.1-.5.2l-2.2,3c-.1.1-.1.3,0,.6.4.2.5.3.7.3"/>
      <path class="st1" d="M124,36.5h8.9v-3h-5.6v-5.9h4.4v-3h-4.4v-5.8h5.6v-2.9h-8.9v20.7Z"/>
      <path class="st1" d="M81.3,30.5l-2.3-14.7h-4.6v20.7h2.9v-14.7h.1l2.2,14.7h3.1l2.2-14.8v14.8h3.1V15.8h-4.5l-2.2,14.7Z"/>
      <path class="st1" d="M95.1,15.8h-4.7v20.7h3.4v-7.8h1.5c3.2,0,4.7-1.7,4.7-5v-2.7c0-3.4-1.7-5.2-4.9-5.2ZM96.6,23.8c0,1.5-.6,2.1-1.6,2.1h-1.5v-7.1h1.5c1,0,1.6.5,1.6,2.1v2.9Z"/>
      <path class="st1" d="M104.6,15.8h-3.2v20.7h8.6v-3h-5.3V15.8Z"/>
      <path class="st1" d="M113.9,15.8l-3.2,20.7h2.9l.6-3.7h3.9l.6,3.7h3.2l-3.2-20.7h-4.7ZM114.4,29.9l1.5-10.5h.1l1.5,10.5h-3.1Z"/>
      <path class="st1" d="M65.5,9.8h-4v2.9h4.2v20.8h-4.2v3h11.7v-3h-4V12.7h4v-2.9h-7.6Z"/>
    </g>
  </g>
</svg>