<svg width="175" height="61" viewBox="0 0 175 61" fill="none" xmlns="http://www.w3.org/2000/svg">
<g clip-path="url(#clip0_2_111)">
<path d="M172.746 12.265H173.289L173.756 13.1707H173.962L173.481 12.2235C173.626 12.182 173.736 12.1129 173.811 12.023C173.887 11.9331 173.921 11.8294 173.921 11.7188C173.921 11.6151 173.894 11.5183 173.832 11.4284C173.77 11.3385 173.687 11.2763 173.584 11.2348C173.481 11.1934 173.337 11.1726 173.165 11.1726H172.56V13.1638H172.753V12.2581L172.746 12.265ZM172.746 11.3524H173.241C173.399 11.3524 173.509 11.3869 173.591 11.4561C173.667 11.5252 173.708 11.6151 173.708 11.7188C173.708 11.7949 173.687 11.864 173.646 11.9193C173.605 11.9746 173.55 12.0161 173.474 12.0437C173.371 12.0783 173.268 12.0921 173.165 12.0921H172.746V11.3455V11.3524Z" fill="#0D50A0"/>
<path d="M173.165 13.9658C174.175 13.9658 175 13.1361 175 12.1198C175 11.1035 174.175 10.2738 173.165 10.2738C172.155 10.2738 171.33 11.1035 171.33 12.1198C171.33 13.1361 172.155 13.9658 173.165 13.9658ZM173.165 10.502C174.052 10.502 174.773 11.2279 174.773 12.1198C174.773 13.0117 174.052 13.7376 173.165 13.7376C172.279 13.7376 171.557 13.0117 171.557 12.1198C171.557 11.2279 172.279 10.502 173.165 10.502Z" fill="#0D50A0"/>
<path d="M12.1156 52.268C15.3662 54.4804 19.6201 57.5018 23.4273 59.9838C25.4614 61.3112 28.0797 61.332 30.1414 60.0529L30.1757 60.0322C35.9209 56.5477 40.0098 53.6715 45.164 49.3297C49.0673 46.0388 51.7063 42.1256 52.4897 36.9264C53.4862 30.31 53.6167 23.6797 53.6855 17.0148C53.7267 13.1224 52.153 10.7994 48.5588 9.2991C42.7862 6.87929 35.3024 3.33254 29.1861 0.511729C27.7017 -0.172732 25.9906 -0.165818 24.5131 0.532471L24.4924 0.546298C17.8058 3.57452 11.1604 6.67879 4.42568 9.61022C1.38131 10.9307 0.00687064 13.0464 -1.53939e-06 16.3511C-0.00687372 21.3014 0.281758 26.2378 0.44669 31.1811C0.742194 40.2865 4.62497 47.1795 12.1156 52.268ZM6.14372 11.2073C12.3562 8.50402 18.4999 5.63482 24.6711 2.83475H24.6917C26.0593 2.18486 27.633 2.17103 29.0075 2.80709C34.6564 5.41358 41.5629 8.69069 46.8957 10.9238C50.215 12.3135 51.6719 14.4568 51.6307 18.0519C51.5619 24.2051 51.4451 30.3307 50.5242 36.4425C49.8027 41.2475 47.363 44.8565 43.7552 47.8986C38.9996 51.9085 35.2199 54.5703 29.9146 57.7852L29.8802 57.806C27.9698 58.9882 25.5576 58.9675 23.6747 57.7437C20.1561 55.4484 16.2321 52.6552 13.2289 50.6157C6.31553 45.9143 2.72825 39.5467 2.45337 31.1396C2.30218 26.5766 2.03416 22.0135 2.04104 17.4435C2.04104 14.3945 3.31239 12.4449 6.12998 11.2142" fill="#0D50A0"/>
<path d="M12.5211 46.1285C16.4382 49.2328 20.5203 52.0674 24.6849 54.8122C26.2311 55.8354 27.5231 55.7455 29.0418 54.7707C33.4812 51.9153 37.8245 48.9355 41.8928 45.5547C45.0746 42.9067 47.1294 39.6987 47.6448 35.4537C48.1327 31.4852 48.4351 27.5236 48.4214 23.5275C48.4214 21.2805 48.4145 19.0266 48.4214 16.7797C48.4214 15.5559 47.9128 14.747 46.772 14.2423C40.6283 11.539 34.5052 8.79429 28.3683 6.07718C27.42 5.65545 26.4648 5.51717 25.4477 5.97348C19.2558 8.74589 13.0571 11.5045 6.85156 14.2423C5.71765 14.7401 5.21598 15.5628 5.20224 16.7866C5.13352 22.5941 5.25721 28.3878 5.86197 34.1747C6.38425 39.1595 8.59022 43.0243 12.5142 46.1285M13.3595 18.6464C14.0055 15.874 16.0878 14.3737 18.9054 14.2423C21.3381 14.1317 23.6403 14.5949 25.8463 15.5905C26.5472 15.9085 27.1314 15.9224 27.8392 15.5905C30.2926 14.4566 32.8971 14.0833 35.5841 14.2631C38.2093 14.4428 40.0648 16.2404 40.5321 19.1511C41.0613 22.442 40.6077 25.6016 39.1096 28.5883C39.0065 28.7958 38.924 29.0585 38.7522 29.1968C37.2128 30.4205 37.4809 32.1074 37.5221 33.7737C37.6114 37.2236 36.9654 40.556 35.6254 43.7225C35.2611 44.5729 34.6701 45.3404 34.0929 46.0732C33.5087 46.8199 32.581 47.0342 31.8319 46.5917C31.3921 46.329 28.5264 44.2272 28.5264 44.2272V43.5774C28.5264 43.5774 30.2238 43.1141 30.43 42.3605C30.43 42.3605 29.8184 42.1531 28.5951 42.2568V40.3763C28.5951 40.3763 30.0245 39.9338 30.43 39.0765C30.43 39.0765 30.1551 38.7308 28.8288 38.7654V36.6774C28.8288 36.6774 29.784 36.8157 30.8698 35.5505C30.8698 35.5505 30.3956 34.9352 29.2068 34.9006V33.0546C29.2068 33.0546 30.8698 32.7159 31.076 31.824C31.076 31.824 30.3956 31.4852 29.5779 31.4852C29.5779 31.4852 29.3717 28.4708 31.2753 27.6896V24.4263H22.3964V27.6896C22.3964 27.6896 24.0939 27.9661 23.9633 32.3425C23.9633 32.3425 26.0387 31.5889 28.3546 31.7272C28.3546 31.7272 24.0045 31.9 22.4033 34.2922C22.4033 34.2922 22.9118 34.465 24.1694 34.2922V35.8685C24.1694 35.8685 25.7363 35.1495 28.5264 35.3569C28.5264 35.3569 24.1007 35.668 22.4033 37.6523C22.4033 37.6523 22.6782 38.0947 24.4443 37.9288V39.5743C24.4443 39.5743 26.0456 38.6133 27.9835 39.1664C27.9835 39.1664 23.3929 39.6089 22.9118 41.358C22.9118 41.358 23.9014 41.6 24.8498 41.358V42.8998C24.8498 42.8998 26.3479 42.3882 27.6399 42.6578C27.6399 42.6578 23.3173 43.204 23.1524 44.4692C23.1524 44.4692 23.5578 44.8426 24.9185 44.4692C24.9185 44.4692 22.259 46.4673 21.9016 46.5848C21.3519 46.7646 20.4791 46.7024 20.0461 46.3567C19.3658 45.8174 18.8091 45.0154 18.4243 44.2203C18.3281 44.0198 18.2319 43.8193 18.1425 43.6119C16.9743 40.964 16.4039 38.1431 16.1771 35.2601C16.074 33.8981 16.2802 32.5154 16.2458 31.1464C16.239 30.78 15.8679 30.3997 15.6136 30.061C13.0228 26.6318 12.3905 22.7808 13.3458 18.674" fill="#0D50A0"/>
<path d="M64.6191 48.0989H63.4302V43.9645H64.6191V42.6786H60.7982V43.9645H61.9389V48.0989H60.7982V49.3849H64.6191V48.0989Z" fill="#0D50A0"/>
<path d="M70.8247 44.3932C70.4879 44.566 70.2268 44.808 70.0275 45.1191C69.8969 44.8426 69.6976 44.6075 69.4296 44.4208C69.1685 44.2272 68.873 44.1305 68.55 44.1305C68.0414 44.1305 67.5879 44.3517 67.1962 44.8011V44.2134H65.7667V49.378H67.1962V46.5987C67.1962 46.1977 67.3061 45.8935 67.5191 45.686C67.7322 45.4786 67.9796 45.3749 68.2545 45.3749C68.5294 45.3749 68.7286 45.4717 68.8592 45.6653C68.9829 45.8589 69.0448 46.1562 69.0448 46.571V49.3918H70.4879V46.6125C70.4879 46.2115 70.591 45.9073 70.804 45.6999C71.0171 45.4925 71.2645 45.3888 71.5462 45.3888C72.1235 45.3888 72.4121 45.7828 72.4121 46.5779V49.3987H73.8553V46.2599C73.8553 45.5754 73.6697 45.05 73.2987 44.6905C72.9276 44.331 72.4465 44.1512 71.8417 44.1512C71.505 44.1512 71.1683 44.2342 70.8384 44.4139" fill="#0D50A0"/>
<path d="M75.1404 44.2203V51.2447H76.5698V48.7004C76.9478 49.2051 77.4563 49.461 78.0817 49.461C78.7071 49.461 79.2568 49.2051 79.7241 48.6935C80.1914 48.1819 80.4251 47.5458 80.4251 46.7853C80.4251 46.0248 80.1914 45.3957 79.7241 44.891C79.2568 44.3863 78.7277 44.1374 78.1298 44.1374C77.5319 44.1374 77.0165 44.3586 76.5767 44.8011V44.2272H75.1473L75.1404 44.2203ZM76.8997 45.7621C77.1333 45.4855 77.4151 45.3473 77.7518 45.3473C78.0886 45.3473 78.3772 45.4855 78.6177 45.769C78.8582 46.0525 78.9819 46.3982 78.9819 46.813C78.9819 47.2278 78.8582 47.5666 78.6108 47.8362C78.3634 48.0989 78.0748 48.2372 77.7449 48.2372C77.4151 48.2372 77.1333 48.1059 76.8997 47.8362C76.666 47.5735 76.5492 47.2278 76.5492 46.813C76.5492 46.3982 76.666 46.0456 76.8997 45.769" fill="#0D50A0"/>
<path d="M81.4903 42.6786V47.6357C81.4903 48.1957 81.6621 48.6451 81.9988 48.9701C82.3424 49.295 82.7548 49.461 83.2496 49.461C83.7444 49.461 84.2117 49.2535 84.6584 48.8456L84.1223 47.8362C83.9368 48.0782 83.71 48.2027 83.442 48.2027C83.3045 48.2027 83.1808 48.1473 83.0778 48.0367C82.9747 47.9261 82.9266 47.7671 82.9266 47.5735V42.6786H81.4903Z" fill="#0D50A0"/>
<path d="M85.1669 46.7784C85.1669 47.5804 85.4143 48.2303 85.9022 48.7212C86.3901 49.2121 86.9605 49.461 87.6203 49.461C88.1426 49.461 88.603 49.295 89.0153 48.9632V49.3849H90.4585V44.2203H89.0153V44.649C88.6305 44.3033 88.1838 44.1305 87.6684 44.1305C87.0086 44.1305 86.4245 44.3724 85.9228 44.8495C85.4212 45.3265 85.1669 45.9695 85.1669 46.7715M86.9743 45.7621C87.2148 45.4856 87.5034 45.3473 87.8402 45.3473C88.1769 45.3473 88.4587 45.4855 88.6923 45.769C88.9191 46.0525 89.0359 46.3982 89.0359 46.8199C89.0359 47.2416 88.9191 47.5804 88.6923 47.85C88.4655 48.1128 88.1838 48.251 87.8539 48.251C87.5241 48.251 87.2354 48.1197 86.988 47.85C86.7406 47.5873 86.6169 47.2416 86.6169 46.8199C86.6169 46.3982 86.7406 46.0456 86.9812 45.769" fill="#0D50A0"/>
<path d="M91.8535 44.2203V49.3849H93.2829V46.5088C93.2829 46.1078 93.386 45.8036 93.5991 45.5893C93.8121 45.3818 94.0595 45.2781 94.3481 45.2781C94.9254 45.2781 95.214 45.6722 95.214 46.4673V49.3849H96.6434V46.2461C96.6434 45.61 96.4579 45.0915 96.0937 44.7112C95.7294 44.324 95.2759 44.1374 94.733 44.1374C94.1901 44.1374 93.709 44.3586 93.2761 44.8011V44.2272H91.8466L91.8535 44.2203Z" fill="#0D50A0"/>
<path d="M97.8736 42.6786V47.6357C97.8736 48.1957 98.0454 48.6451 98.3821 48.9701C98.7257 49.295 99.138 49.461 99.6328 49.461C100.128 49.461 100.595 49.2535 101.042 48.8456L100.506 47.8362C100.32 48.0782 100.093 48.2027 99.8252 48.2027C99.6878 48.2027 99.5641 48.1473 99.461 48.0367C99.3579 47.9261 99.3098 47.7671 99.3098 47.5735V45.3473H100.547V44.2272H99.3098V42.6855H97.8736V42.6786Z" fill="#0D50A0"/>
<path d="M105.364 44.6559C104.986 44.3102 104.533 44.1374 104.017 44.1374C103.358 44.1374 102.773 44.3793 102.272 44.8564C101.77 45.3334 101.516 45.9764 101.516 46.7784C101.516 47.5804 101.756 48.2303 102.251 48.7212C102.739 49.2121 103.309 49.461 103.969 49.461C104.491 49.461 104.952 49.295 105.364 48.9632V49.3849H106.807V44.2203H105.364V44.649V44.6559ZM105.041 47.8431C104.814 48.1059 104.533 48.2441 104.203 48.2441C103.873 48.2441 103.584 48.1128 103.337 47.8431C103.09 47.5804 102.966 47.2347 102.966 46.813C102.966 46.3912 103.09 46.0386 103.33 45.7621C103.571 45.4855 103.859 45.3473 104.196 45.3473C104.533 45.3473 104.814 45.4855 105.048 45.769C105.275 46.0525 105.392 46.3982 105.392 46.8199C105.392 47.2416 105.275 47.5804 105.048 47.8431" fill="#0D50A0"/>
<path d="M108.209 44.2203V49.3849H109.639V46.5088C109.639 46.1078 109.742 45.8036 109.955 45.5893C110.168 45.3818 110.415 45.2781 110.704 45.2781C111.281 45.2781 111.57 45.6722 111.57 46.4673V49.3849H112.999V46.2461C112.999 45.61 112.814 45.0915 112.449 44.7112C112.085 44.324 111.632 44.1374 111.089 44.1374C110.546 44.1374 110.065 44.3586 109.632 44.8011V44.2272H108.202L108.209 44.2203Z" fill="#0D50A0"/>
<path d="M117.872 44.8011C117.48 44.3586 116.971 44.1374 116.346 44.1374C115.721 44.1374 115.178 44.3793 114.717 44.8702C114.25 45.3611 114.023 45.9902 114.023 46.7577C114.023 47.5251 114.264 48.1681 114.738 48.6866C115.212 49.2051 115.755 49.461 116.367 49.461C116.978 49.461 117.48 49.2121 117.878 48.7004V49.3849H119.308V42.2637H117.878V44.7942L117.872 44.8011ZM117.542 47.8362C117.308 48.0989 117.026 48.2372 116.696 48.2372C116.367 48.2372 116.078 48.1059 115.831 47.8362C115.583 47.5735 115.459 47.2278 115.459 46.813C115.459 46.3982 115.583 46.0456 115.824 45.769C116.064 45.4855 116.353 45.3473 116.69 45.3473C117.026 45.3473 117.308 45.4855 117.542 45.7621C117.775 46.0386 117.892 46.3912 117.892 46.8061C117.892 47.2209 117.775 47.5666 117.542 47.8293" fill="#0D50A0"/>
<path d="M121.129 48.6935C121.644 49.2051 122.29 49.461 123.067 49.461C123.844 49.461 124.489 49.2051 125.005 48.6935C125.52 48.1819 125.775 47.5528 125.775 46.8061C125.775 46.0594 125.513 45.4302 125.005 44.9117C124.489 44.3932 123.844 44.1374 123.067 44.1374C122.29 44.1374 121.644 44.3932 121.129 44.9117C120.614 45.4302 120.359 46.0594 120.359 46.8061C120.359 47.5528 120.62 48.1819 121.129 48.6935ZM122.153 45.769C122.393 45.4994 122.696 45.368 123.067 45.368C123.438 45.368 123.747 45.4994 123.981 45.769C124.221 46.0386 124.338 46.3843 124.338 46.8061C124.338 47.2278 124.221 47.5735 123.981 47.8362C123.74 48.0989 123.438 48.2372 123.067 48.2372C122.696 48.2372 122.387 48.1059 122.153 47.8362C121.912 47.5735 121.796 47.2278 121.796 46.8061C121.796 46.3843 121.912 46.0386 122.153 45.769Z" fill="#0D50A0"/>
<path d="M129.994 43.045C129.541 43.3907 129.314 43.8816 129.314 44.5176C129.314 45.1537 129.492 45.6238 129.85 45.9211C130.207 46.2184 130.778 46.4604 131.554 46.6471C132.042 46.7715 132.372 46.889 132.537 47.0066C132.702 47.1241 132.784 47.2831 132.784 47.4836C132.784 47.6841 132.709 47.8431 132.551 47.9607C132.393 48.0782 132.179 48.1404 131.905 48.1404C131.293 48.1404 130.626 47.8224 129.912 47.1932L129.025 48.2856C129.87 49.0738 130.819 49.4679 131.877 49.4679C132.606 49.4679 133.197 49.2812 133.643 48.9079C134.09 48.5345 134.317 48.0436 134.317 47.4421C134.317 46.8406 134.138 46.3843 133.794 46.0732C133.444 45.7621 132.956 45.527 132.324 45.368C131.692 45.209 131.286 45.0776 131.114 44.9601C130.942 44.8426 130.853 44.6905 130.853 44.4969C130.853 44.3033 130.922 44.1443 131.066 44.0267C131.21 43.9092 131.403 43.847 131.65 43.847C132.269 43.847 132.867 44.0682 133.444 44.5107L134.2 43.4183C133.87 43.1349 133.478 42.9205 133.038 42.7684C132.592 42.6163 132.145 42.5403 131.705 42.5403C131.025 42.5403 130.455 42.7131 130.001 43.0588" fill="#0D50A0"/>
<path d="M137.815 44.1374C137.038 44.1374 136.385 44.3932 135.877 44.9117C135.361 45.4233 135.107 46.0594 135.107 46.8061C135.107 47.5528 135.361 48.1819 135.877 48.6935C136.392 49.2051 137.038 49.461 137.815 49.461C138.591 49.461 139.237 49.2051 139.753 48.6935C140.268 48.1819 140.522 47.5528 140.522 46.8061C140.522 46.0594 140.268 45.4233 139.753 44.9117C139.237 44.3932 138.591 44.1374 137.815 44.1374ZM138.729 47.8362C138.488 48.0989 138.186 48.2372 137.815 48.2372C137.444 48.2372 137.134 48.1059 136.901 47.8362C136.66 47.5735 136.543 47.2278 136.543 46.8061C136.543 46.3843 136.66 46.0386 136.901 45.769C137.141 45.4994 137.444 45.368 137.815 45.368C138.186 45.368 138.495 45.4994 138.729 45.769C138.969 46.0386 139.086 46.3843 139.086 46.8061C139.086 47.2278 138.969 47.5735 138.729 47.8362Z" fill="#0D50A0"/>
<path d="M143.017 44.2203H141.587V49.3849H143.017V46.5088C143.017 46.1078 143.12 45.8036 143.333 45.5893C143.546 45.3818 143.793 45.2781 144.082 45.2781C144.659 45.2781 144.948 45.6722 144.948 46.4673V49.3849H146.377V46.2461C146.377 45.61 146.192 45.0915 145.828 44.7112C145.463 44.324 145.01 44.1374 144.467 44.1374C143.924 44.1374 143.443 44.3586 143.01 44.8011V44.2272L143.017 44.2203Z" fill="#0D50A0"/>
<path d="M147.676 44.2203V49.3849H149.106V47.1518C149.106 46.654 149.209 46.253 149.422 45.9488C149.635 45.6446 149.951 45.4925 150.377 45.4925H150.652V44.1374C150.356 44.1374 150.075 44.2203 149.8 44.3655C149.525 44.5107 149.291 44.6905 149.106 44.9048V44.2203H147.676Z" fill="#0D50A0"/>
<path d="M153.03 44.2203H151.6V49.378H153.03V44.2203Z" fill="#0D50A0"/>
<path d="M152.906 42.3674C152.741 42.2015 152.542 42.1255 152.308 42.1255C152.074 42.1255 151.875 42.2084 151.71 42.3674C151.545 42.5334 151.47 42.7339 151.47 42.9689C151.47 43.204 151.552 43.4045 151.71 43.5704C151.875 43.7364 152.068 43.8124 152.308 43.8124C152.549 43.8124 152.741 43.7295 152.906 43.5704C153.071 43.4045 153.146 43.2109 153.146 42.9689C153.146 42.727 153.064 42.5334 152.906 42.3674Z" fill="#0D50A0"/>
<path d="M154.865 46.8337C155.057 46.9582 155.222 47.0481 155.373 47.1103C155.524 47.1725 155.737 47.2486 156.019 47.3384C156.301 47.4283 156.521 47.5251 156.665 47.6288C156.816 47.7325 156.892 47.8431 156.892 47.9676C156.892 48.092 156.837 48.1888 156.727 48.258C156.617 48.334 156.473 48.3686 156.287 48.3686C155.682 48.3686 155.112 48.1612 154.583 47.7463L153.957 48.652C154.287 48.9217 154.658 49.1222 155.071 49.2605C155.483 49.3987 155.882 49.4679 156.266 49.4679C156.837 49.4679 157.311 49.3158 157.682 49.0046C158.053 48.7004 158.239 48.2925 158.239 47.7809C158.239 47.2693 158.06 46.9098 157.703 46.6955C157.51 46.5779 157.345 46.495 157.215 46.4396C157.077 46.3843 156.844 46.3083 156.521 46.2046C156.198 46.1009 155.964 46.011 155.827 45.9349C155.689 45.8589 155.614 45.7552 155.614 45.6169C155.614 45.3749 155.833 45.2505 156.273 45.2505C156.713 45.2505 157.16 45.4026 157.607 45.7137L158.143 44.7527C157.538 44.3448 156.933 44.1374 156.328 44.1374C155.724 44.1374 155.229 44.2895 154.851 44.5868C154.473 44.8841 154.28 45.2781 154.28 45.7552C154.28 46.2322 154.473 46.5917 154.865 46.8337Z" fill="#0D50A0"/>
<path d="M162.926 44.6559C162.548 44.3102 162.094 44.1374 161.579 44.1374C160.919 44.1374 160.335 44.3793 159.833 44.8564C159.331 45.3334 159.077 45.9764 159.077 46.7784C159.077 47.5804 159.318 48.2303 159.812 48.7212C160.3 49.2121 160.871 49.461 161.531 49.461C162.053 49.461 162.513 49.295 162.926 48.9632V49.3849H164.369V44.2203H162.926V44.649V44.6559ZM162.603 47.8431C162.376 48.1059 162.094 48.2441 161.764 48.2441C161.434 48.2441 161.146 48.1128 160.898 47.8431C160.651 47.5804 160.527 47.2347 160.527 46.813C160.527 46.3912 160.651 46.0386 160.891 45.7621C161.132 45.4855 161.421 45.3473 161.757 45.3473C162.094 45.3473 162.376 45.4855 162.609 45.769C162.836 46.0525 162.953 46.3982 162.953 46.8199C162.953 47.2416 162.836 47.5804 162.609 47.8431" fill="#0D50A0"/>
<path d="M168.121 48.258C168.011 48.334 167.867 48.3686 167.681 48.3686C167.076 48.3686 166.506 48.1612 165.977 47.7463L165.345 48.6451C165.674 48.9148 166.046 49.1153 166.458 49.2535C166.87 49.3918 167.269 49.461 167.647 49.461C168.217 49.461 168.691 49.3089 169.062 48.9977C169.434 48.6935 169.619 48.2856 169.619 47.774C169.619 47.2624 169.44 46.9029 169.083 46.6816C168.891 46.5641 168.733 46.4811 168.595 46.4258C168.458 46.3705 168.231 46.2945 167.901 46.1907C167.578 46.087 167.344 45.9972 167.207 45.9211C167.07 45.8451 167.001 45.7414 167.001 45.6031C167.001 45.3611 167.221 45.2367 167.661 45.2367C168.1 45.2367 168.547 45.3888 168.994 45.6999L169.53 44.7389C168.925 44.331 168.32 44.1235 167.716 44.1235C167.111 44.1235 166.616 44.2756 166.238 44.5729C165.853 44.8702 165.668 45.2643 165.668 45.7414C165.668 46.2184 165.86 46.5779 166.252 46.8199C166.444 46.9443 166.609 47.0342 166.76 47.0965C166.911 47.1587 167.124 47.2347 167.406 47.3246C167.688 47.4145 167.908 47.5113 168.052 47.615C168.203 47.7187 168.279 47.8293 168.279 47.9538C168.279 48.0782 168.224 48.175 168.114 48.2441" fill="#0D50A0"/>
<path d="M166.623 9.7553V25.7053L161.647 9.7553H157.593V36.5322H160.953V17.2083L166.623 36.2972L166.733 36.5322H169.626V9.7553H166.623Z" fill="#0D50A0"/>
<path d="M140.124 15.8048H135.031V36.5253H140.124C143.251 36.5253 144.866 34.7762 144.866 31.4022V20.9279C144.866 17.6715 143.127 15.8048 140.124 15.8048ZM141.629 20.8173V31.5267C141.629 33.2759 140.701 33.6216 140.007 33.6216H138.268V18.7224H140.007C140.701 18.7224 141.629 18.9575 141.629 20.8173Z" fill="#0D50A0"/>
<path d="M146.831 36.5322H155.744V33.504H150.075V27.5651H154.473V24.5369H150.075V18.7155H155.744V15.8117H146.831V36.5322Z" fill="#0D50A0"/>
<path d="M150.191 13.945H151.346C151.463 13.945 151.696 13.8275 151.806 13.71L154.356 10.6817C154.473 10.5642 154.59 10.3361 154.473 10.101C154.356 9.86592 154.239 9.74838 154.012 9.74838H152.164C151.93 9.74838 151.813 9.86592 151.703 9.98345L149.504 13.0117C149.387 13.1292 149.387 13.3574 149.504 13.5924C149.855 13.8275 149.965 13.9381 150.198 13.9381" fill="#0D50A0"/>
<path d="M124.036 36.5322H132.949V33.504H127.39V27.5651H131.788V24.5369H127.39V18.7155H132.949V15.8117H124.036V36.5322Z" fill="#0D50A0"/>
<path d="M81.3391 30.4758L79.0232 15.8117H74.3913V36.5322H77.2845V21.8613H77.4013L79.6004 36.5322H82.7273L84.9264 21.7437V36.5322H88.0463V15.8117H83.5382L81.3391 30.4758Z" fill="#0D50A0"/>
<path d="M95.1109 15.8048H90.3691V36.5253H93.7228V28.7266H95.2278C98.4646 28.7266 99.9696 26.9774 99.9696 23.7211V21.0454C99.9696 17.6715 98.2309 15.8048 95.1109 15.8048ZM96.6091 23.8386C96.6091 25.3527 96.0318 25.9335 94.9872 25.9335H93.4822V18.833H94.9872C96.0249 18.833 96.6091 19.2963 96.6091 20.9279V23.8386Z" fill="#0D50A0"/>
<path d="M104.595 15.8048H101.358V36.5322H109.92V33.504H104.595V15.8048Z" fill="#0D50A0"/>
<path d="M113.851 15.8048L110.615 36.5253H113.508L114.085 32.7988H118.016L118.593 36.5253H121.83L118.593 15.8048H113.851ZM114.436 29.895L115.941 19.4207H116.057L117.562 29.895H114.436Z" fill="#0D50A0"/>
<path d="M65.485 9.7553H61.4373V12.666H65.6018V33.504H61.4373V36.5322H65.485H69.1891H73.12V33.504H69.0723V12.666H73.12V9.7553H69.1891H65.485Z" fill="#0D50A0"/>
</g>
<defs>
<clipPath id="clip0_2_111">
<rect width="175" height="61" fill="white"/>
</clipPath>
</defs>
</svg>
